# xmcd
#
# Track frame offsets: 
#        150
#        10403
#        30171
#        44910
#        55681
#        63846
#
# Disc length: 1129 seconds
#
# Revision: 0
# Processed by: cddbd v1.5.2PL0 Copyright (c) Steve Scherf et al.
# Submitted via: ExactAudioCopyFreeDBPlugin 1.0
#
DISCID=45046706
DTITLE=The Barefoot Movement - The High Road E.P.
DYEAR=2014
DGENRE=Bluegrass
TTITLE0=Bowling Green
TTITLE1=Rocky Island
TTITLE2=High Road to Linton
TTITLE3=Hey Lawdy Papa
TTITLE4=Jim along Josie
TTITLE5=Wade in the Water
EXTD=
EXTT0=
EXTT1=
EXTT2=
EXTT3=
EXTT4=
EXTT5=
PLAYORDER=
